<svg width="39" height="28" viewBox="0 0 39 28" fill="none" xmlns="http://www.w3.org/2000/svg">
    <path d="M36.1302 0.30957H1.64019C0.812004 0.30957 0.140625 0.991264 0.140625 1.83218V24.6713C0.140625 25.5122 0.812004 26.1939 1.64019 26.1939H36.1302C36.9584 26.1939 37.6298 25.5122 37.6298 24.6713V1.83218C37.6298 0.991264 36.9584 0.30957 36.1302 0.30957Z" fill="white"/>
    <path d="M36.383 0.69043H1.64828C1.02273 0.69043 0.515625 1.21955 0.515625 1.87225V25.5086C0.515625 26.1613 1.02273 26.6904 1.64828 26.6904H36.383C37.0085 26.6904 37.5156 26.1613 37.5156 25.5086V1.87225C37.5156 1.21955 37.0085 0.69043 36.383 0.69043Z" stroke="#D2D2D2"/>
    <path d="M9.5293 18.625V14.1211H14.2229L14.7268 14.7881L15.2471 14.1211H32.2957V18.3144C32.0073 18.501 31.676 18.608 31.3345 18.625H21.8977L21.3294 17.9154V18.625H19.4714V17.413C19.2229 17.5412 18.9451 17.5995 18.6669 17.582H18.0333V18.625H15.2141L14.711 17.9436L14.2004 18.625H9.5293Z" fill="white"/>
    <path d="M4.04492 10.7263L5.10436 8.21932H6.93608L7.53591 9.6239V8.21932H9.813L10.1706 9.23414L10.5178 8.21932H20.7396V8.72933C21.1393 8.39533 21.642 8.21482 22.1597 8.21932L25.476 8.23066L26.0668 9.61702V8.21932H27.972L28.4968 9.01557V8.21932H30.42V12.7231H28.4976L27.9952 11.9245V12.7231H25.1956L24.9136 12.0128H24.1639L23.8872 12.7231H21.9857C21.5241 12.7178 21.0806 12.5397 20.7403 12.2229V12.7231H17.8777L17.3093 12.0128V12.7231H6.66242L6.38125 12.0128H5.63146L5.35179 12.7231H4.04492V10.7263Z" fill="white"/>
    <path d="M5.48107 8.77344L4.05273 12.1461H4.98247L5.24639 11.4708H6.77895L7.04137 12.1461H7.9921L6.56751 8.77344H5.48107ZM6.00592 9.55835L6.47303 10.7384H5.53956L6.00592 9.55835Z" fill="#016FD0"/>
    <path d="M8.08789 12.1453V8.77281L9.40975 8.77736L10.1783 10.9516L10.9281 8.77197H12.2394V12.1446H11.4087V9.65966L10.5284 12.1446H9.80039L8.9179 9.65966V12.1446L8.08789 12.1453Z" fill="#016FD0"/>
    <path d="M12.8066 12.1455V8.77295H15.5164V9.52738H13.6457V10.1044H15.4729V10.8147H13.6457V11.4139H15.5164V12.1462L12.8066 12.1455Z" fill="#016FD0"/>
    <path d="M16 8.77354V12.1461H16.8248V10.9479H17.1742L18.1699 12.1461H19.1843L18.0919 10.9037C18.3439 10.8782 18.5774 10.7576 18.7461 10.5657C18.9147 10.3739 19.0064 10.1247 19.0029 9.86754C19.0038 9.71634 18.9737 9.56664 18.9146 9.42787C18.8555 9.2891 18.7686 9.16431 18.6595 9.06144C18.5503 8.95857 18.4213 8.87988 18.2806 8.83032C18.1399 8.78076 17.9906 8.7614 17.8422 8.77354H16ZM16.83 9.52806H17.7792C17.8772 9.52439 17.9728 9.55918 18.0461 9.62526C18.1194 9.69134 18.1648 9.78357 18.1729 9.88278C18.1664 9.98024 18.1232 10.0715 18.0523 10.1375C17.9814 10.2035 17.8882 10.2394 17.792 10.2376H16.8248L16.83 9.52806Z" fill="#016FD0"/>
    <path d="M20.1937 12.1455H19.3457V8.77295H20.1937V12.1455Z" fill="#016FD0"/>
    <path d="M22.2034 12.1452H22.0204C21.8148 12.1413 21.6123 12.0935 21.4262 12.0048C21.24 11.9162 21.0743 11.7887 20.9399 11.6307C20.8055 11.4727 20.7054 11.2876 20.6461 11.0877C20.5868 10.8877 20.5697 10.6774 20.5959 10.4703C20.5725 10.2434 20.5989 10.014 20.6732 9.79871C20.7474 9.58339 20.8678 9.38746 21.0255 9.22494C21.1832 9.06243 21.3743 8.9374 21.5852 8.85879C21.7962 8.78018 22.0216 8.74998 22.2454 8.77032H23.1631V9.56889H22.2116C22.1 9.57134 21.9901 9.59759 21.8891 9.64583C21.7881 9.69408 21.6981 9.76325 21.625 9.84898C21.552 9.93472 21.4975 10.035 21.465 10.1435C21.4325 10.2519 21.4227 10.3662 21.4364 10.4787C21.4205 10.6028 21.4326 10.7288 21.4718 10.8475C21.5109 10.9661 21.5762 11.0741 21.6624 11.1634C21.7487 11.2527 21.8539 11.3209 21.9699 11.3629C22.086 11.405 22.2099 11.4197 22.3324 11.406H22.5506L22.2034 12.1452Z" fill="#016FD0"/>
    <path d="M24.0103 8.77344L22.582 12.1461H23.5118L23.7757 11.4708H25.3082L25.5706 12.1461H26.5169L25.0923 8.77344H24.0103ZM24.5352 9.55835L25.0023 10.7384H24.0666L24.5352 9.55835Z" fill="#016FD0"/>
    <path d="M26.6172 12.1455V8.77295H27.6729L29.0225 10.8916V8.77295H29.8525V12.1455H28.8313L27.4487 9.97122V12.1455H26.6172Z" fill="#016FD0"/>
    <path d="M10.0996 18.0484V14.6758H12.8093V15.4303H10.9386V16.0073H12.7651V16.7169H10.9386V17.316H12.8093V18.0484H10.0996Z" fill="#016FD0"/>
    <path d="M23.375 18.0484V14.6758H26.0847V15.4303H24.214V16.0073H26.0322V16.7169H24.214V17.316H26.0847V18.0484H23.375Z" fill="#016FD0"/>
    <path d="M12.9128 18.0484L14.2324 16.3827L12.8828 14.6758H13.9325L14.737 15.731L15.5445 14.6758H16.55L15.2169 16.3621L16.5387 18.0484H15.489L14.7078 17.01L13.946 18.0484H12.9128Z" fill="#016FD0"/>
    <path d="M16.6309 14.6753V18.0479H17.4834V16.982H18.3576C18.5212 17.0041 18.6876 16.9902 18.8455 16.9411C19.0033 16.8921 19.1489 16.809 19.2722 16.6977C19.3956 16.5863 19.4939 16.4493 19.5605 16.2959C19.627 16.1425 19.6602 15.9764 19.6577 15.8088C19.6618 15.6522 19.6331 15.4965 19.5736 15.3519C19.5141 15.2073 19.4251 15.0771 19.3124 14.9699C19.1998 14.8628 19.0661 14.7811 18.9202 14.7302C18.7742 14.6793 18.6193 14.6603 18.4656 14.6745L16.6309 14.6753ZM17.4834 15.4366H18.4041C18.4568 15.4316 18.5099 15.438 18.56 15.4554C18.6101 15.4728 18.6559 15.5007 18.6946 15.5374C18.7333 15.5741 18.7639 15.6187 18.7844 15.6682C18.8048 15.7178 18.8148 15.7711 18.8135 15.8248C18.8135 15.8785 18.8027 15.9315 18.7816 15.9807C18.7605 16.0298 18.7296 16.074 18.6909 16.1105C18.6521 16.147 18.6064 16.1749 18.5565 16.1926C18.5067 16.2102 18.4538 16.2172 18.4011 16.2131H17.4834V15.4366Z" fill="#016FD0"/>
    <path d="M20.0195 14.6749V18.0475H20.8495V16.8492H21.1989L22.1947 18.0475H23.2076L22.1152 16.805C22.3672 16.7795 22.6007 16.659 22.7693 16.4671C22.938 16.2753 23.0297 16.0261 23.0262 15.7689C23.0271 15.6177 22.997 15.468 22.9379 15.3292C22.8788 15.1905 22.7919 15.0657 22.6827 14.9628C22.5736 14.8599 22.4446 14.7812 22.3039 14.7317C22.1632 14.6821 22.0139 14.6628 21.8655 14.6749H20.0195ZM20.8495 15.4294H21.7988C21.8967 15.4258 21.9923 15.4606 22.0656 15.5266C22.139 15.5927 22.1844 15.6849 22.1924 15.7841C22.1859 15.8816 22.1427 15.9728 22.0718 16.0389C22.0009 16.1049 21.9077 16.1407 21.8115 16.1389H20.8503L20.8495 15.4294Z" fill="#016FD0"/>
    <path d="M26.4702 18.0483V17.3159H28.1317C28.3776 17.3159 28.4841 17.1812 28.4841 17.0327C28.4841 16.8843 28.3776 16.748 28.1317 16.748H27.3819C27.2471 16.7613 27.111 16.7444 26.9832 16.6986C26.8554 16.6529 26.7391 16.5793 26.6423 16.483C26.5455 16.3868 26.4706 16.2702 26.4229 16.1414C26.3751 16.0127 26.3557 15.8749 26.3659 15.7377C26.3659 15.1972 26.6989 14.6719 27.6691 14.6719H29.2864L28.937 15.4332H27.5386C27.271 15.4332 27.1892 15.5756 27.1892 15.7119C27.1892 15.7519 27.1971 15.7915 27.2127 15.8283C27.2283 15.8651 27.2511 15.8983 27.2797 15.9258C27.3084 15.9533 27.3423 15.9746 27.3793 15.9884C27.4164 16.0021 27.4558 16.008 27.4951 16.0057H28.2816C28.4155 15.9855 28.5522 15.9957 28.6816 16.0358C28.8111 16.0759 28.9301 16.1448 29.0301 16.2375C29.13 16.3302 29.2084 16.4443 29.2595 16.5716C29.3106 16.6989 29.3331 16.8361 29.3254 16.9733C29.3348 17.1191 29.3131 17.2652 29.2616 17.4016C29.2101 17.538 29.1302 17.6614 29.0272 17.7635C28.9242 17.8655 28.8007 17.9436 28.6651 17.9925C28.5296 18.0414 28.3852 18.06 28.2419 18.0468L26.4702 18.0483Z" fill="#016FD0"/>
    <path d="M29.5151 18.0483V17.3159H31.1766C31.4226 17.3159 31.529 17.1812 31.529 17.0327C31.529 16.8843 31.4226 16.748 31.1766 16.748H30.4269C30.292 16.7613 30.1559 16.7444 30.0281 16.6986C29.9004 16.6529 29.784 16.5793 29.6872 16.483C29.5904 16.3868 29.5155 16.2702 29.4678 16.1414C29.4201 16.0127 29.4006 15.8749 29.4109 15.7377C29.4109 15.1972 29.7438 14.6719 30.714 14.6719H32.3313L31.9819 15.4332H30.5835C30.3159 15.4332 30.2341 15.5756 30.2341 15.7119C30.2341 15.7519 30.2421 15.7915 30.2576 15.8283C30.2732 15.8651 30.296 15.8983 30.3247 15.9258C30.3533 15.9533 30.3872 15.9746 30.4242 15.9884C30.4613 16.0021 30.5007 16.008 30.5401 16.0057H31.3266C31.4605 15.9855 31.5971 15.9957 31.7266 16.0358C31.856 16.0759 31.9751 16.1448 32.0751 16.2375C32.175 16.3302 32.2534 16.4443 32.3044 16.5716C32.3555 16.6989 32.378 16.8361 32.3703 16.9733C32.3797 17.119 32.358 17.265 32.3066 17.4014C32.2551 17.5377 32.1752 17.6612 32.0724 17.7632C31.9695 17.8652 31.8461 17.9433 31.7106 17.9923C31.5751 18.0412 31.4308 18.0599 31.2876 18.0468L29.5151 18.0483Z" fill="#016FD0"/>
</svg>
