<?xml version="1.0" encoding="UTF-8"?>
<svg xmlns="http://www.w3.org/2000/svg" xmlns:xlink="http://www.w3.org/1999/xlink" width="41px" height="26px" viewBox="0 0 40 26" version="1.1">
<g id="surface1">
<path style=" stroke:none;fill-rule:nonzero;fill:rgb(0%,0%,0%);fill-opacity:1;" d="M 36.3125 0 L 3.570312 0 C 3.433594 0 3.300781 0 3.164062 0 C 3.046875 0 2.933594 0.00390625 2.816406 0.0078125 C 2.566406 0.0117188 2.316406 0.0273438 2.066406 0.0742188 C 1.816406 0.121094 1.582031 0.195312 1.355469 0.3125 C 1.132812 0.429688 0.925781 0.582031 0.746094 0.761719 C 0.570312 0.941406 0.421875 1.152344 0.308594 1.378906 C 0.191406 1.613281 0.117188 1.851562 0.0703125 2.105469 C 0.0273438 2.355469 0.0117188 2.613281 0.00390625 2.867188 C 0.00390625 2.984375 0 3.101562 0 3.21875 C 0 3.359375 0 3.496094 0 3.636719 L 0 22.355469 C 0 22.496094 0 22.632812 0 22.773438 C 0 22.890625 0.00390625 23.007812 0.00390625 23.121094 C 0.0117188 23.378906 0.0273438 23.632812 0.0703125 23.886719 C 0.117188 24.140625 0.191406 24.378906 0.308594 24.613281 C 0.421875 24.839844 0.570312 25.050781 0.746094 25.230469 C 0.925781 25.410156 1.132812 25.5625 1.355469 25.679688 C 1.582031 25.796875 1.816406 25.871094 2.066406 25.917969 C 2.316406 25.964844 2.566406 25.980469 2.816406 25.984375 C 2.933594 25.988281 3.046875 25.988281 3.164062 25.992188 C 3.300781 25.992188 3.433594 25.992188 3.570312 25.992188 L 36.3125 25.992188 C 36.449219 25.992188 36.585938 25.992188 36.722656 25.992188 C 36.835938 25.988281 36.953125 25.988281 37.066406 25.984375 C 37.316406 25.980469 37.570312 25.964844 37.816406 25.917969 C 38.066406 25.871094 38.300781 25.796875 38.53125 25.679688 C 38.753906 25.5625 38.957031 25.410156 39.136719 25.230469 C 39.3125 25.050781 39.464844 24.839844 39.578125 24.613281 C 39.695312 24.378906 39.769531 24.140625 39.8125 23.886719 C 39.855469 23.632812 39.871094 23.378906 39.878906 23.121094 C 39.882812 23.007812 39.882812 22.890625 39.882812 22.773438 C 39.882812 22.632812 39.882812 22.496094 39.882812 22.355469 L 39.882812 3.636719 C 39.882812 3.496094 39.882812 3.359375 39.882812 3.21875 C 39.882812 3.101562 39.882812 2.984375 39.878906 2.867188 C 39.871094 2.613281 39.855469 2.355469 39.8125 2.105469 C 39.769531 1.851562 39.695312 1.613281 39.578125 1.378906 C 39.464844 1.152344 39.3125 0.941406 39.136719 0.761719 C 38.957031 0.582031 38.753906 0.429688 38.53125 0.3125 C 38.300781 0.195312 38.066406 0.121094 37.816406 0.0742188 C 37.570312 0.0273438 37.316406 0.0117188 37.066406 0.0078125 C 36.953125 0.00390625 36.835938 0 36.722656 0 C 36.585938 0 36.449219 0 36.3125 0 Z M 36.3125 0 "/>
<path style=" stroke:none;fill-rule:nonzero;fill:rgb(100%,100%,100%);fill-opacity:1;" d="M 36.3125 0.867188 L 36.714844 0.867188 C 36.824219 0.867188 36.933594 0.867188 37.042969 0.871094 C 37.234375 0.878906 37.457031 0.886719 37.664062 0.925781 C 37.847656 0.960938 38 1.007812 38.144531 1.085938 C 38.289062 1.160156 38.417969 1.257812 38.535156 1.375 C 38.648438 1.492188 38.746094 1.625 38.820312 1.773438 C 38.894531 1.921875 38.941406 2.074219 38.976562 2.257812 C 39.011719 2.46875 39.023438 2.695312 39.027344 2.890625 C 39.03125 3.003906 39.03125 3.113281 39.03125 3.226562 C 39.035156 3.363281 39.035156 3.5 39.035156 3.636719 L 39.035156 22.355469 C 39.035156 22.492188 39.035156 22.628906 39.03125 22.769531 C 39.03125 22.878906 39.03125 22.988281 39.027344 23.097656 C 39.023438 23.292969 39.011719 23.523438 38.972656 23.734375 C 38.941406 23.917969 38.894531 24.070312 38.820312 24.21875 C 38.746094 24.367188 38.648438 24.5 38.535156 24.617188 C 38.417969 24.734375 38.289062 24.832031 38.140625 24.90625 C 37.996094 24.980469 37.847656 25.03125 37.667969 25.066406 C 37.453125 25.105469 37.222656 25.113281 37.046875 25.121094 C 36.9375 25.121094 36.828125 25.125 36.714844 25.125 C 36.582031 25.125 36.445312 25.125 36.3125 25.125 L 3.570312 25.125 C 3.570312 25.125 3.566406 25.125 3.566406 25.125 C 3.433594 25.125 3.300781 25.125 3.167969 25.125 C 3.058594 25.125 2.945312 25.121094 2.839844 25.121094 C 2.660156 25.113281 2.429688 25.105469 2.21875 25.066406 C 2.039062 25.03125 1.886719 24.980469 1.738281 24.90625 C 1.597656 24.832031 1.464844 24.734375 1.347656 24.617188 C 1.234375 24.5 1.140625 24.367188 1.066406 24.21875 C 0.992188 24.070312 0.941406 23.917969 0.910156 23.730469 C 0.871094 23.519531 0.863281 23.292969 0.855469 23.097656 C 0.855469 22.988281 0.851562 22.878906 0.851562 22.765625 L 0.851562 3.226562 C 0.851562 3.113281 0.855469 3.003906 0.855469 2.890625 C 0.863281 2.699219 0.871094 2.472656 0.910156 2.257812 C 0.941406 2.074219 0.992188 1.921875 1.066406 1.773438 C 1.140625 1.625 1.234375 1.492188 1.351562 1.375 C 1.464844 1.257812 1.597656 1.160156 1.742188 1.085938 C 1.886719 1.007812 2.039062 0.960938 2.21875 0.925781 C 2.425781 0.886719 2.648438 0.878906 2.839844 0.871094 C 2.949219 0.867188 3.058594 0.867188 3.167969 0.867188 L 36.3125 0.867188 "/>
<path style=" stroke:none;fill-rule:nonzero;fill:rgb(0%,0%,0%);fill-opacity:1;" d="M 10.886719 8.742188 C 11.230469 8.308594 11.460938 7.722656 11.398438 7.125 C 10.902344 7.152344 10.289062 7.460938 9.9375 7.898438 C 9.621094 8.269531 9.339844 8.878906 9.414062 9.449219 C 9.972656 9.5 10.535156 9.164062 10.886719 8.742188 "/>
<path style=" stroke:none;fill-rule:nonzero;fill:rgb(0%,0%,0%);fill-opacity:1;" d="M 11.394531 9.5625 C 10.578125 9.511719 9.886719 10.03125 9.496094 10.03125 C 9.109375 10.03125 8.511719 9.585938 7.867188 9.597656 C 7.027344 9.609375 6.25 10.09375 5.824219 10.863281 C 4.949219 12.398438 5.59375 14.675781 6.445312 15.929688 C 6.859375 16.546875 7.355469 17.230469 8.011719 17.203125 C 8.632812 17.179688 8.875 16.796875 9.628906 16.796875 C 10.382812 16.796875 10.601562 17.203125 11.261719 17.191406 C 11.941406 17.179688 12.367188 16.574219 12.78125 15.953125 C 13.253906 15.246094 13.449219 14.566406 13.460938 14.527344 C 13.449219 14.515625 12.148438 14.007812 12.136719 12.484375 C 12.125 11.210938 13.15625 10.601562 13.207031 10.566406 C 12.621094 9.6875 11.710938 9.585938 11.394531 9.5625 "/>
<path style=" stroke:none;fill-rule:nonzero;fill:rgb(0%,0%,0%);fill-opacity:1;" d="M 18.488281 7.835938 C 20.261719 7.835938 21.496094 9.078125 21.496094 10.886719 C 21.496094 12.703125 20.234375 13.953125 18.445312 13.953125 L 16.484375 13.953125 L 16.484375 17.128906 L 15.066406 17.128906 L 15.066406 7.835938 Z M 16.484375 12.742188 L 18.109375 12.742188 C 19.34375 12.742188 20.046875 12.066406 20.046875 10.894531 C 20.046875 9.722656 19.34375 9.050781 18.117188 9.050781 L 16.484375 9.050781 Z M 16.484375 12.742188 "/>
<path style=" stroke:none;fill-rule:nonzero;fill:rgb(0%,0%,0%);fill-opacity:1;" d="M 21.863281 15.203125 C 21.863281 14.015625 22.757812 13.289062 24.339844 13.199219 L 26.160156 13.089844 L 26.160156 12.570312 C 26.160156 11.816406 25.660156 11.363281 24.824219 11.363281 C 24.035156 11.363281 23.542969 11.75 23.421875 12.355469 L 22.128906 12.355469 C 22.207031 11.132812 23.230469 10.230469 24.875 10.230469 C 26.488281 10.230469 27.519531 11.101562 27.519531 12.457031 L 27.519531 17.128906 L 26.210938 17.128906 L 26.210938 16.011719 L 26.179688 16.011719 C 25.792969 16.765625 24.953125 17.242188 24.078125 17.242188 C 22.777344 17.242188 21.863281 16.417969 21.863281 15.203125 Z M 26.160156 14.589844 L 26.160156 14.054688 L 24.523438 14.160156 C 23.707031 14.21875 23.246094 14.585938 23.246094 15.164062 C 23.246094 15.757812 23.726562 16.140625 24.457031 16.140625 C 25.414062 16.140625 26.160156 15.472656 26.160156 14.589844 Z M 26.160156 14.589844 "/>
<path style=" stroke:none;fill-rule:nonzero;fill:rgb(0%,0%,0%);fill-opacity:1;" d="M 28.757812 19.621094 L 28.757812 18.492188 C 28.859375 18.519531 29.085938 18.519531 29.199219 18.519531 C 29.832031 18.519531 30.175781 18.25 30.382812 17.554688 C 30.382812 17.539062 30.503906 17.140625 30.503906 17.132812 L 28.097656 10.351562 L 29.578125 10.351562 L 31.261719 15.867188 L 31.289062 15.867188 L 32.96875 10.351562 L 34.414062 10.351562 L 31.917969 17.480469 C 31.351562 19.125 30.691406 19.652344 29.3125 19.652344 C 29.199219 19.652344 28.859375 19.640625 28.757812 19.621094 Z M 28.757812 19.621094 "/>
</g>
</svg>