<svg width="39" height="27" viewBox="0 0 39 27" fill="none" xmlns="http://www.w3.org/2000/svg">
    <path d="M36.4477 0.5H2.40773C1.59035 0.5 0.927734 1.18474 0.927734 2.02941V24.9706C0.927734 25.8153 1.59035 26.5 2.40773 26.5H36.4477C37.2651 26.5 37.9277 25.8153 37.9277 24.9706V2.02941C37.9277 1.18474 37.2651 0.5 36.4477 0.5Z" fill="white"/>
    <path d="M36.9174 0.880859H2.42741C1.80627 0.880859 1.30273 1.39213 1.30273 2.02281V24.8619C1.30273 25.4926 1.80627 26.0039 2.42741 26.0039H36.9174C37.5386 26.0039 38.0421 25.4926 38.0421 24.8619V2.02281C38.0421 1.39213 37.5386 0.880859 36.9174 0.880859Z" stroke="#D2D2D2"/>
    <path d="M37.6665 17.0371C37.6665 17.0371 28.6631 22.9973 12.1738 25.665H37.6665V17.0371Z" fill="#F46F1B"/>
    <path d="M6.46583 14.1145C6.11279 14.4024 5.66296 14.539 5.2122 14.4951H4.96627V11.3418H5.2122C5.43592 11.3187 5.66193 11.3409 5.87713 11.4072C6.09232 11.4734 6.29243 11.5824 6.46583 11.7278C6.6269 11.879 6.75521 12.0627 6.8426 12.267C6.92999 12.4713 6.97455 12.6919 6.97344 12.9147C6.97445 13.1393 6.92991 13.3618 6.84258 13.5682C6.75525 13.7746 6.62701 13.9606 6.46583 14.1145ZM5.39589 10.5318H4.05078V15.3006H5.38839C5.99493 15.3348 6.59231 15.1386 7.06416 14.7502C7.44825 14.4277 7.72143 13.9897 7.84423 13.4992C7.96703 13.0088 7.93309 12.4915 7.74731 12.0219C7.56154 11.5524 7.23354 11.1549 6.81073 10.8871C6.38791 10.6192 5.89217 10.4948 5.39514 10.5318" fill="black"/>
    <path d="M8.33789 15.301H9.25413V10.5322H8.33789V15.301Z" fill="black"/>
    <path d="M11.4946 12.3618C10.945 12.1555 10.7831 12.0192 10.7831 11.7611C10.7831 11.4611 11.071 11.2328 11.4654 11.2328C11.6093 11.2359 11.7505 11.2723 11.8785 11.3392C12.0065 11.4061 12.1177 11.5017 12.2039 11.6187L12.683 10.9815C12.3033 10.6378 11.8114 10.4492 11.3027 10.4524C11.1172 10.4407 10.9314 10.4671 10.7563 10.5301C10.5811 10.5931 10.4203 10.6913 10.2835 10.8189C10.1467 10.9465 10.0367 11.1009 9.96005 11.2727C9.88343 11.4446 9.84177 11.6304 9.83759 11.819C9.83759 12.476 10.133 12.8087 10.993 13.1269C11.2121 13.1971 11.4243 13.2881 11.6266 13.3987C11.7106 13.4495 11.7802 13.5218 11.8283 13.6083C11.8764 13.6948 11.9015 13.7926 11.901 13.892C11.9003 13.9844 11.881 14.0757 11.8443 14.1603C11.8077 14.2448 11.7544 14.3209 11.6878 14.3839C11.6212 14.4469 11.5427 14.4955 11.457 14.5266C11.3713 14.5577 11.2803 14.5708 11.1894 14.565C10.9801 14.5685 10.7741 14.5103 10.5966 14.3975C10.4191 14.2847 10.2776 14.1221 10.1892 13.9293L9.59766 14.5079C9.76404 14.793 10.0027 15.0276 10.2887 15.1872C10.5748 15.3468 10.8977 15.4256 11.2239 15.4154C11.4338 15.4302 11.6445 15.4005 11.8424 15.3281C12.0404 15.2557 12.2213 15.1422 12.3737 14.9949C12.5261 14.8475 12.6466 14.6696 12.7274 14.4724C12.8083 14.2751 12.8478 14.063 12.8435 13.8494C12.8435 13.0881 12.5353 12.7485 11.4946 12.3618Z" fill="black"/>
    <path d="M13.1348 12.9192C13.1323 13.2491 13.1948 13.5762 13.3189 13.8812C13.4429 14.1862 13.6258 14.4628 13.8569 14.6948C14.0879 14.9268 14.3624 15.1094 14.6642 15.2319C14.9659 15.3544 15.2887 15.4142 15.6136 15.4079C16.0127 15.4084 16.4063 15.3132 16.7623 15.13V14.0353C16.6257 14.1979 16.4562 14.3287 16.2654 14.4188C16.0746 14.5089 15.8668 14.5562 15.6564 14.5575C15.4441 14.5634 15.2329 14.5246 15.0362 14.4434C14.8395 14.3622 14.6615 14.2404 14.5135 14.0858C14.3655 13.9312 14.2507 13.747 14.1764 13.545C14.1021 13.3431 14.0699 13.1276 14.0818 12.9123C14.0749 12.702 14.1093 12.4925 14.1831 12.2958C14.2568 12.0991 14.3683 11.9193 14.5112 11.7669C14.654 11.6145 14.8254 11.4925 15.0152 11.408C15.205 11.3235 15.4094 11.2782 15.6166 11.2748C15.8344 11.2758 16.0494 11.3239 16.2474 11.4158C16.4454 11.5077 16.622 11.6413 16.7653 11.8077V10.7137C16.4206 10.5216 16.0338 10.4208 15.6406 10.4206C15.3147 10.4165 14.9912 10.4779 14.6888 10.6013C14.3864 10.7247 14.111 10.9077 13.8786 11.1397C13.6461 11.3717 13.4612 11.6481 13.3344 11.953C13.2077 12.2579 13.1417 12.5852 13.1401 12.9162" fill="black"/>
    <path d="M24.0246 13.735L22.7717 10.5322H21.7715L23.7644 15.4236H24.2578L26.2867 10.5322H25.294L24.0246 13.735Z" fill="black"/>
    <path d="M26.7012 15.3014H29.2992V14.4944H27.6167V13.207H29.2369V12.3962H27.6167V11.338H29.2992V10.5303H26.7012V15.2991" fill="black"/>
    <path d="M31.0894 12.7271H30.8217V11.2806H31.1037C31.6742 11.2806 31.9839 11.5234 31.9839 11.9878C31.9846 12.472 31.6742 12.7271 31.0894 12.7271ZM32.9271 11.9399C32.9271 11.0469 32.3213 10.5322 31.2649 10.5322H29.9062V15.301H30.821V13.3856H30.9402L32.2081 15.301H33.3328L31.8542 13.2919C32.1683 13.2467 32.4536 13.0817 32.6523 12.8306C32.8511 12.5795 32.9482 12.2611 32.9241 11.9399" fill="black"/>
    <path d="M33.3999 10.7481H33.3834V10.6384H33.4014C33.4501 10.6384 33.4764 10.6559 33.4764 10.6925C33.4764 10.729 33.4509 10.7481 33.4014 10.7481H33.3999ZM33.5738 10.691C33.5738 10.6072 33.5168 10.5615 33.4179 10.5615H33.2852V10.981H33.3834V10.8189L33.4988 10.981H33.6188L33.4831 10.8082C33.5093 10.8026 33.5328 10.7878 33.5493 10.7663C33.5657 10.7449 33.5749 10.7181 33.5738 10.691Z" fill="black"/>
    <path d="M33.4347 11.0707C33.3758 11.0728 33.3177 11.057 33.2677 11.0253C33.2178 10.9937 33.1783 10.9476 33.1543 10.8929C33.1304 10.8383 33.1231 10.7776 33.1333 10.7187C33.1436 10.6598 33.1709 10.6054 33.2118 10.5624C33.2528 10.5194 33.3054 10.4898 33.3631 10.4775C33.4207 10.4651 33.4806 10.4705 33.5352 10.4929C33.5898 10.5154 33.6365 10.5539 33.6694 10.6036C33.7022 10.6532 33.7197 10.7117 33.7196 10.7715C33.7206 10.8494 33.6912 10.9246 33.6379 10.9807C33.5845 11.0367 33.5115 11.0691 33.4347 11.0707ZM33.4347 10.4053C33.3633 10.4044 33.2933 10.4251 33.2336 10.4647C33.1738 10.5042 33.127 10.561 33.099 10.6277C33.0711 10.6944 33.0633 10.768 33.0767 10.8392C33.0901 10.9104 33.124 10.9759 33.1741 11.0275C33.2243 11.079 33.2884 11.1143 33.3583 11.1288C33.4283 11.1432 33.5009 11.1363 33.5669 11.1087C33.6329 11.0812 33.6894 11.0344 33.7291 10.9742C33.7689 10.914 33.7901 10.8432 33.7901 10.7707C33.7904 10.723 33.7814 10.6758 33.7637 10.6316C33.746 10.5874 33.72 10.5472 33.687 10.5133C33.6539 10.4793 33.6147 10.4523 33.5714 10.4338C33.5281 10.4153 33.4817 10.4056 33.4347 10.4053Z" fill="black"/>
    <path d="M17.0605 12.9335C17.0605 12.2607 17.3238 11.6154 17.7924 11.1396C18.261 10.6638 18.8965 10.3965 19.5592 10.3965C20.2219 10.3965 20.8574 10.6638 21.326 11.1396C21.7946 11.6154 22.0579 12.2607 22.0579 12.9335C22.0579 13.6064 21.7946 14.2517 21.326 14.7275C20.8574 15.2033 20.2219 15.4706 19.5592 15.4706C18.8965 15.4706 18.261 15.2033 17.7924 14.7275C17.3238 14.2517 17.0605 13.6064 17.0605 12.9335Z" fill="#F46F1B"/>
    <path d="M36.9174 0.880859H2.42741C1.80627 0.880859 1.30273 1.39213 1.30273 2.02281V24.8619C1.30273 25.4926 1.80627 26.0039 2.42741 26.0039H36.9174C37.5386 26.0039 38.0421 25.4926 38.0421 24.8619V2.02281C38.0421 1.39213 37.5386 0.880859 36.9174 0.880859Z" stroke="#D2D2D2"/>
</svg>
