<svg width="39" height="27" viewBox="0 0 39 27" fill="none" xmlns="http://www.w3.org/2000/svg">
    <path d="M36.3325 0.5H2.2925C1.47512 0.5 0.8125 1.18474 0.8125 2.02941V24.9706C0.8125 25.8153 1.47512 26.5 2.2925 26.5H36.3325C37.1499 26.5 37.8125 25.8153 37.8125 24.9706V2.02941C37.8125 1.18474 37.1499 0.5 36.3325 0.5Z" fill="white"/>
    <path d="M36.8022 0.880859H2.31217C1.69103 0.880859 1.1875 1.39213 1.1875 2.02281V24.8619C1.1875 25.4926 1.69103 26.0039 2.31217 26.0039H36.8022C37.4233 26.0039 37.9269 25.4926 37.9269 24.8619V2.02281C37.9269 1.39213 37.4233 0.880859 36.8022 0.880859Z" stroke="#D2D2D2"/>
    <path d="M29.2553 17.2153V16.9771H29.1939L29.1226 17.1392L29.0491 16.9771H28.9877V17.2131H29.0312V17.0349L29.0979 17.1872H29.1429L29.2096 17.0349V17.2131L29.2553 17.2153ZM28.8662 17.2153V17.0197H28.9412V16.9771H28.7402V17.0166H28.8152V17.2123L28.8662 17.2153Z" fill="#F79410"/>
    <path d="M22.279 18.2316H16.9668V8.65527H22.2768L22.279 18.2316Z" fill="#FF5F00"/>
    <path d="M17.3102 13.4424C17.3103 12.5175 17.519 11.605 17.9204 10.7748C18.3217 9.94461 18.905 9.21878 19.6255 8.65301C18.5538 7.80668 17.2342 7.34845 15.8766 7.35118C14.2765 7.34186 12.7383 7.97828 11.6004 9.12044C10.4624 10.2626 9.81791 11.817 9.80859 13.4416C9.81791 15.0662 10.4624 16.6206 11.6004 17.7628C12.7383 18.9049 14.2765 19.5413 15.8766 19.532C17.2342 19.5347 18.5538 19.0765 19.6255 18.2302C18.9047 17.6647 18.321 16.9391 17.9193 16.109C17.5175 15.279 17.3084 14.3665 17.3079 13.4416" fill="#EB001B"/>
    <path d="M29.4407 13.4424C29.4314 15.067 28.7869 16.6214 27.6489 17.7635C26.511 18.9057 24.9728 19.5421 23.3727 19.5328C22.0151 19.5353 20.6956 19.0771 19.6238 18.231C20.3448 17.6656 20.9286 16.94 21.3305 16.11C21.7324 15.2799 21.9416 14.3673 21.9421 13.4424C21.9416 12.5172 21.7323 11.6045 21.3303 10.7742C20.9283 9.94401 20.3443 9.21836 19.623 8.65301C20.6948 7.80684 22.0143 7.34862 23.372 7.35118C24.972 7.34186 26.5102 7.97828 27.6482 9.12044C28.7861 10.2626 29.4306 11.817 29.44 13.4416" fill="#F79E1B"/>
</svg>
