<svg width="75" height="27" viewBox="0 0 75 27" fill="none" xmlns="http://www.w3.org/2000/svg">
    <path d="M73.3598 0.5H2.13043C1.30224 0.5 0.630859 1.18169 0.630859 2.02261V24.8617C0.630859 25.7026 1.30224 26.3843 2.13043 26.3843H73.3598C74.188 26.3843 74.8594 25.7026 74.8594 24.8617V2.02261C74.8594 1.18169 74.188 0.5 73.3598 0.5Z" fill="white"/>
    <path d="M2.89106 0.5H38.3809L34.6054 26.5H2.89106C2.49053 26.5 2.10641 26.3389 1.82319 26.052C1.53997 25.7652 1.38086 25.3762 1.38086 24.9706V2.02941C1.38086 1.62379 1.53997 1.23477 1.82319 0.947954C2.10641 0.661134 2.49053 0.5 2.89106 0.5Z" fill="#003087"/>
    <path d="M43.9679 9.63552H41.6353C41.5571 9.63656 41.4818 9.66599 41.423 9.71849C41.3643 9.77099 41.326 9.8431 41.3151 9.92177L40.3719 16.1881C40.3671 16.2167 40.3685 16.2461 40.376 16.2741C40.3834 16.3022 40.3968 16.3282 40.4151 16.3506C40.4334 16.3729 40.4562 16.391 40.482 16.4035C40.5078 16.4161 40.536 16.4228 40.5646 16.4233H41.678C41.7564 16.4222 41.8317 16.3927 41.8905 16.34C41.9492 16.2874 41.9874 16.2151 41.9982 16.1363L42.2524 14.4462C42.263 14.3673 42.3011 14.2949 42.3599 14.2423C42.4187 14.1896 42.4941 14.1601 42.5725 14.1592H43.3111C43.6372 14.1921 43.9665 14.1573 44.279 14.0571C44.5916 13.9568 44.8807 13.7931 45.129 13.5758C45.3773 13.3586 45.5796 13.0924 45.7234 12.7934C45.8673 12.4944 45.9499 12.1688 45.966 11.8364C46.0306 11.5671 46.0372 11.2867 45.9855 11.0145C45.9337 10.7423 45.8248 10.4846 45.6661 10.259C45.4455 10.0349 45.1789 9.86288 44.8854 9.75512C44.5919 9.64737 44.2787 9.60653 43.9679 9.63552ZM44.237 11.924C44.1096 12.801 43.47 12.801 42.8514 12.801H42.4983L42.745 11.1635C42.7514 11.1162 42.7743 11.0729 42.8095 11.0413C42.8448 11.0097 42.8899 10.992 42.9369 10.9914H43.0981C43.5195 10.9914 43.9169 10.9914 44.1223 11.2426C44.1881 11.3414 44.2324 11.4532 44.2521 11.5707C44.2719 11.6882 44.2668 11.8087 44.237 11.924Z" fill="#002F86"/>
    <path d="M50.9412 11.8966H49.8241C49.7771 11.8972 49.7319 11.9149 49.6967 11.9465C49.6615 11.9781 49.6386 12.0214 49.6321 12.0686L49.5826 12.396L49.5077 12.2772C49.3407 12.0966 49.1343 11.9581 48.9052 11.873C48.676 11.7878 48.4304 11.7584 48.188 11.787C47.5631 11.8089 46.9669 12.059 46.5088 12.4912C46.0507 12.9234 45.7615 13.5089 45.6943 14.1401C45.6352 14.4526 45.6417 14.7742 45.7134 15.084C45.7851 15.3937 45.9204 15.6846 46.1104 15.9376C46.2841 16.1389 46.5009 16.2971 46.7442 16.4C46.9876 16.503 47.2509 16.5479 47.514 16.5314C47.8031 16.5331 48.0895 16.4746 48.3555 16.3593C48.6214 16.2441 48.8612 16.0746 49.06 15.8614L49.0105 16.1865C49.0057 16.2152 49.007 16.2445 49.0143 16.2726C49.0217 16.3007 49.0349 16.3269 49.0531 16.3493C49.0714 16.3717 49.0942 16.3898 49.1199 16.4025C49.1457 16.4151 49.1739 16.422 49.2025 16.4225H50.2087C50.287 16.4215 50.3624 16.3919 50.4212 16.3393C50.4799 16.2866 50.5181 16.2143 50.5289 16.1355L51.1324 12.1303C51.1371 12.1019 51.1356 12.0728 51.1282 12.045C51.1208 12.0171 51.1075 11.9913 51.0894 11.9691C51.0713 11.9469 51.0487 11.929 51.0231 11.9165C50.9975 11.904 50.9696 11.8972 50.9412 11.8966ZM49.3839 14.1714C49.3455 14.4822 49.1958 14.7679 48.9634 14.9739C48.731 15.18 48.4321 15.2921 48.1236 15.2889C47.9832 15.2975 47.8428 15.2736 47.7129 15.219C47.5831 15.1644 47.4671 15.0805 47.3738 14.9738C47.2886 14.8573 47.2289 14.7237 47.1986 14.5819C47.1684 14.4401 47.1683 14.2934 47.1983 14.1516C47.236 13.8412 47.384 13.5554 47.6146 13.3481C47.8452 13.1407 48.1424 13.026 48.4505 13.0256C48.5903 13.0182 48.73 13.0431 48.8591 13.0983C48.9882 13.1536 49.1033 13.2378 49.1957 13.3446C49.2828 13.4611 49.3445 13.595 49.3769 13.7375C49.4094 13.88 49.4118 14.0279 49.3839 14.1714Z" fill="#002F86"/>
    <path d="M56.8907 11.8965H55.766C55.7123 11.8972 55.6597 11.9114 55.6128 11.938C55.5659 11.9646 55.5263 12.0027 55.4976 12.0487L53.9493 14.4377L53.2932 12.1416C53.2741 12.0725 53.2335 12.0116 53.1774 11.968C53.1213 11.9243 53.0527 11.9003 52.9821 11.8995H51.8829C51.8514 11.9003 51.8205 11.9086 51.7928 11.9237C51.7651 11.9389 51.7413 11.9605 51.7233 11.9867C51.7053 12.013 51.6937 12.0432 51.6894 12.0749C51.6851 12.1065 51.6882 12.1388 51.6984 12.169L52.9326 15.9672L51.7704 17.6862C51.7495 17.7164 51.7371 17.7517 51.7344 17.7885C51.7318 17.8253 51.739 17.8621 51.7553 17.8951C51.7716 17.9281 51.7964 17.9559 51.827 17.9757C51.8577 17.9955 51.8931 18.0065 51.9294 18.0075H53.0541C53.1068 18.0072 53.1587 17.9937 53.2052 17.9682C53.2516 17.9427 53.2911 17.906 53.3202 17.8613L57.0541 12.2155C57.0746 12.185 57.0866 12.1494 57.0887 12.1126C57.0909 12.0758 57.0832 12.0391 57.0664 12.0063C57.0496 11.9736 57.0244 11.9461 56.9935 11.9268C56.9626 11.9074 56.927 11.897 56.8907 11.8965Z" fill="#002F86"/>
    <path d="M60.6073 9.63562H58.274C58.1957 9.63666 58.1204 9.66609 58.0617 9.71859C58.003 9.7711 57.9647 9.8432 57.9538 9.92187L57.0106 16.1882C57.0058 16.2167 57.0072 16.246 57.0146 16.274C57.022 16.302 57.0353 16.3281 57.0535 16.3504C57.0717 16.3727 57.0945 16.3908 57.1202 16.4034C57.1459 16.416 57.174 16.4228 57.2025 16.4234H58.4022C58.4572 16.4228 58.5101 16.4022 58.5514 16.3653C58.5927 16.3284 58.6196 16.2777 58.6271 16.2224L58.8948 14.4463C58.9054 14.3674 58.9436 14.295 59.0023 14.2424C59.0611 14.1897 59.1365 14.1602 59.2149 14.1593H59.9527C60.2783 14.1911 60.6068 14.1556 60.9184 14.0548C61.23 13.9541 61.5183 13.7903 61.7658 13.5733C62.0133 13.3562 62.215 13.0905 62.3585 12.7921C62.502 12.4938 62.5845 12.1689 62.601 11.8373C62.6656 11.5679 62.6722 11.2876 62.6205 11.0154C62.5687 10.7432 62.4598 10.4855 62.301 10.2599C62.081 10.0362 61.8153 9.86431 61.5226 9.75643C61.2299 9.64856 60.9174 9.60731 60.6073 9.63562ZM60.8765 11.9241C60.749 12.8011 60.1094 12.8011 59.4909 12.8011H59.1392L59.3866 11.1636C59.3929 11.1162 59.4158 11.0728 59.4511 11.0412C59.4863 11.0096 59.5316 10.992 59.5786 10.9915H59.7398C60.1604 10.9915 60.5585 10.9915 60.764 11.2427C60.8294 11.3416 60.8733 11.4536 60.8927 11.5711C60.912 11.6886 60.9065 11.8089 60.8765 11.9241Z" fill="#009CDE"/>
    <path d="M67.5794 11.8965H66.4599C66.4129 11.897 66.3676 11.9147 66.3324 11.9463C66.2972 11.9779 66.2743 12.0213 66.268 12.0686L66.2185 12.396L66.1435 12.2772C65.9767 12.0966 65.7704 11.9582 65.5414 11.873C65.3124 11.7879 65.0669 11.7584 64.8247 11.7869C64.1997 11.8089 63.6035 12.0589 63.1454 12.4912C62.6874 12.9234 62.3982 13.5088 62.3309 14.1401C62.2719 14.4526 62.2784 14.7742 62.3501 15.0839C62.4218 15.3936 62.5571 15.6845 62.747 15.9375C62.921 16.1397 63.1383 16.2985 63.3824 16.4017C63.6264 16.5049 63.8905 16.5498 64.1544 16.5329C64.4435 16.5346 64.7299 16.476 64.9958 16.3608C65.2618 16.2456 65.5016 16.0761 65.7004 15.8629L65.6509 16.188C65.646 16.2167 65.6473 16.2461 65.6547 16.2743C65.6621 16.3024 65.6754 16.3286 65.6938 16.351C65.7121 16.3735 65.7349 16.3916 65.7608 16.4042C65.7867 16.4168 65.8149 16.4236 65.8436 16.424H66.8498C66.9282 16.4229 67.0035 16.3934 67.0623 16.3407C67.121 16.2881 67.1592 16.2158 67.17 16.137L67.7743 12.1318C67.7791 12.1029 67.7776 12.0734 67.7701 12.0452C67.7625 12.017 67.7489 11.9908 67.7304 11.9684C67.7119 11.946 67.6887 11.928 67.6627 11.9156C67.6366 11.9032 67.6082 11.8967 67.5794 11.8965ZM66.0221 14.1713C65.9838 14.4822 65.8342 14.768 65.6017 14.9741C65.3693 15.1802 65.0703 15.2923 64.7617 15.2889C64.6214 15.2974 64.481 15.2734 64.3511 15.2188C64.2212 15.1642 64.1052 15.0804 64.0119 14.9737C63.9268 14.8572 63.8672 14.7236 63.8369 14.5818C63.8067 14.44 63.8065 14.2934 63.8364 14.1515C63.8741 13.8411 64.0221 13.5554 64.2527 13.348C64.4833 13.1407 64.7806 13.026 65.0886 13.0256C65.2285 13.0182 65.3682 13.0431 65.4972 13.0983C65.6263 13.1535 65.7414 13.2377 65.8339 13.3445C65.9212 13.4609 65.9831 13.5948 66.0156 13.7374C66.048 13.8799 66.0502 14.0278 66.0221 14.1713Z" fill="#009CDE"/>
    <path d="M68.8959 9.8078L67.9384 16.189C67.9336 16.2176 67.9349 16.247 67.9422 16.275C67.9496 16.3031 67.9628 16.3292 67.9811 16.3515C67.9993 16.3739 68.0221 16.392 68.0479 16.4045C68.0737 16.4171 68.1018 16.4238 68.1304 16.4243H69.0931C69.1715 16.4234 69.247 16.3939 69.3057 16.3412C69.3645 16.2885 69.4027 16.2161 69.4133 16.1373L70.3572 9.87098C70.362 9.8424 70.3606 9.81311 70.3532 9.78511C70.3458 9.75711 70.3325 9.73106 70.3143 9.70874C70.2961 9.68641 70.2734 9.66834 70.2477 9.65574C70.2219 9.64314 70.1939 9.63632 70.1653 9.63574H69.0871C69.0403 9.63672 68.9954 9.65456 68.9604 9.68608C68.9253 9.7176 68.9025 9.76074 68.8959 9.8078Z" fill="#009CDE"/>
    <path d="M8.42817 11.4104C8.32923 11.2163 8.18445 11.0503 8.00679 10.927C7.80147 10.7896 7.55895 10.7209 7.31324 10.7305C7.15933 10.7165 7.00423 10.7351 6.85778 10.7852C6.71134 10.8353 6.57676 10.9158 6.4626 11.0215C6.34844 11.1273 6.25719 11.256 6.19465 11.3995C6.13212 11.543 6.09966 11.6981 6.09934 11.855C6.09405 11.9889 6.11823 12.1224 6.17011 12.2456C6.22199 12.3689 6.30027 12.4789 6.39926 12.5676C6.56918 12.7212 6.76467 12.8429 6.97659 12.9269L7.36573 13.1096C7.55328 13.1813 7.72842 13.2828 7.88458 13.4103C7.95514 13.474 8.01091 13.5528 8.04786 13.641C8.08481 13.7292 8.10203 13.8246 8.09826 13.9204C8.10327 14.0368 8.08404 14.1529 8.04182 14.2613C7.99961 14.3696 7.93536 14.4677 7.85328 14.5491C7.77119 14.6305 7.67312 14.6934 7.56547 14.7337C7.45781 14.774 7.343 14.7908 7.22852 14.783C7.11394 14.7885 6.99949 14.7698 6.89237 14.7281C6.78526 14.6864 6.68782 14.6227 6.6062 14.5409C6.46576 14.3869 6.37521 14.1929 6.34677 13.9851L5.87891 14.1161C5.93875 14.4064 6.07805 14.6737 6.28079 14.8873C6.40654 15.0066 6.55446 15.0993 6.71589 15.16C6.87733 15.2206 7.04904 15.248 7.22102 15.2405C7.39904 15.251 7.57729 15.2241 7.74456 15.1613C7.91183 15.0985 8.06451 15.0013 8.19301 14.8758C8.32151 14.7503 8.42306 14.5991 8.49127 14.4318C8.55948 14.2645 8.59288 14.0847 8.58937 13.9036C8.59553 13.7565 8.57099 13.6097 8.51736 13.4729C8.46374 13.336 8.38224 13.2122 8.27821 13.1096C8.08283 12.9311 7.85623 12.7914 7.61016 12.6977L7.19553 12.515C7.02866 12.4532 6.87477 12.3599 6.74191 12.2402C6.68725 12.1942 6.64409 12.1358 6.61594 12.0696C6.58779 12.0035 6.57546 11.9315 6.57995 11.8596C6.57954 11.7658 6.59848 11.673 6.63553 11.5871C6.67259 11.5012 6.72694 11.4242 6.7951 11.3609C6.86326 11.2977 6.94371 11.2496 7.03127 11.2199C7.11883 11.1901 7.21156 11.1793 7.30349 11.1881C7.47788 11.1823 7.64917 11.2359 7.7901 11.3403C7.89488 11.4311 7.98078 11.5421 8.04278 11.6669L8.42817 11.4104ZM11.2219 14.2538C11.1568 14.3971 11.0616 14.5242 10.9429 14.6261C10.789 14.7577 10.593 14.8275 10.3919 14.8225C10.2753 14.8224 10.16 14.7982 10.0529 14.7513C9.94587 14.7044 9.84935 14.6359 9.76923 14.5499C9.68911 14.464 9.62708 14.3623 9.58691 14.2512C9.54675 14.1401 9.52929 14.0218 9.5356 13.9036H11.6297C11.6466 13.546 11.5587 13.1912 11.3771 12.8843C11.2609 12.7222 11.1073 12.5916 10.9297 12.5038C10.7522 12.4161 10.5562 12.3739 10.3589 12.381C10.1773 12.3797 9.99754 12.417 9.83108 12.4906C9.66462 12.5641 9.51519 12.6723 9.39241 12.8081C9.26964 12.9439 9.17625 13.1042 9.11826 13.2789C9.06027 13.4536 9.03897 13.6387 9.05574 13.8222C9.03938 14.0068 9.06199 14.1928 9.12207 14.3678C9.18216 14.5428 9.27832 14.7027 9.40415 14.837C9.52998 14.9712 9.68257 15.0766 9.85173 15.1462C10.0209 15.2158 10.2027 15.248 10.3851 15.2405C10.7131 15.2466 11.0315 15.1276 11.2773 14.907C11.4113 14.7813 11.5232 14.6333 11.608 14.4693L11.2219 14.2538ZM9.56784 13.5085C9.59633 13.315 9.69139 13.1379 9.83619 13.0087C9.98098 12.8795 10.1661 12.8066 10.3589 12.8028C10.5523 12.804 10.7389 12.876 10.8842 13.0056C11.0295 13.1353 11.1239 13.3139 11.1499 13.5085H9.56784ZM14.3207 12.646C14.0761 12.4712 13.7838 12.3785 13.4847 12.381C13.2956 12.3735 13.1071 12.4054 12.9306 12.4747C12.7541 12.544 12.5935 12.6492 12.4586 12.784C12.3237 12.9187 12.2174 13.0801 12.1463 13.2581C12.0752 13.4361 12.0408 13.6271 12.0451 13.8191C12.0417 14.0101 12.077 14.1996 12.1487 14.3762C12.2204 14.5527 12.327 14.7124 12.462 14.8453C12.5969 14.9783 12.7573 15.0817 12.9333 15.1491C13.1092 15.2166 13.2969 15.2467 13.4847 15.2375C13.7921 15.2386 14.0917 15.1402 14.3402 14.9565V14.3947C14.2343 14.5252 14.1017 14.6307 13.9517 14.704C13.8016 14.7774 13.6377 14.8168 13.4712 14.8195C13.3427 14.8216 13.2152 14.7968 13.0966 14.7465C12.978 14.6962 12.8709 14.6216 12.7821 14.5273C12.6932 14.433 12.6245 14.3211 12.5803 14.1986C12.536 14.0761 12.5172 13.9456 12.525 13.8153C12.5159 13.6838 12.5339 13.5517 12.578 13.4276C12.622 13.3035 12.6911 13.1902 12.7808 13.0948C12.8706 12.9994 12.9789 12.9241 13.099 12.8737C13.219 12.8232 13.3481 12.7989 13.478 12.802C13.6392 12.802 13.7985 12.8383 13.9442 12.9083C14.0899 12.9784 14.2185 13.0804 14.3207 13.2071V12.646ZM15.3907 12.4496H14.9235V14.0833C14.9073 14.2294 14.9209 14.3772 14.9633 14.5178C15.0058 14.6583 15.0762 14.7885 15.1702 14.9002C15.2778 15.0106 15.4065 15.0976 15.5482 15.156C15.69 15.2144 15.842 15.2429 15.995 15.2397C16.1479 15.2429 16.2999 15.2144 16.4417 15.156C16.5835 15.0976 16.7121 15.0106 16.8197 14.9002C16.9138 14.7885 16.9842 14.6583 17.0266 14.5178C17.0691 14.3772 17.0826 14.2294 17.0664 14.0833V12.4496H16.5993V14.0315C16.621 14.2347 16.5754 14.4394 16.4696 14.6132C16.4124 14.6832 16.3397 14.7387 16.2576 14.775C16.1754 14.8114 16.086 14.8277 15.9965 14.8225C15.907 14.8277 15.8176 14.8114 15.7354 14.775C15.6532 14.7387 15.5806 14.6832 15.5234 14.6132C15.4176 14.4394 15.3719 14.2347 15.3937 14.0315L15.3907 12.4496ZM17.8155 15.1621H18.2826V13.7308C18.2536 13.4759 18.3085 13.2185 18.4385 12.9985C18.4833 12.942 18.5406 12.8971 18.6058 12.8676C18.671 12.8381 18.7421 12.8248 18.8134 12.8287C18.9112 12.8305 19.0061 12.8623 19.0856 12.92L19.306 12.4952C19.1774 12.4279 19.0359 12.39 18.8914 12.3841C18.7686 12.3887 18.6487 12.4238 18.5424 12.4865C18.4361 12.5492 18.3466 12.6374 18.2818 12.7434V12.4496H17.8155V15.1621ZM21.4467 14.2538C21.3816 14.3971 21.2864 14.5242 21.1677 14.6261C21.0138 14.7577 20.8178 14.8275 20.6166 14.8225C20.5001 14.8223 20.3849 14.798 20.2779 14.7511C20.171 14.7042 20.0745 14.6356 19.9945 14.5497C19.9145 14.4637 19.8525 14.3621 19.8124 14.251C19.7723 14.14 19.7548 14.0218 19.7611 13.9036H21.8553C21.8722 13.546 21.7842 13.1912 21.6026 12.8843C21.4864 12.7222 21.3328 12.5916 21.1553 12.5038C20.9777 12.4161 20.7817 12.3739 20.5844 12.381C20.4031 12.3798 20.2236 12.417 20.0574 12.4904C19.8912 12.5637 19.7419 12.6716 19.6192 12.807C19.4964 12.9425 19.403 13.1025 19.3448 13.2768C19.2866 13.4511 19.265 13.6358 19.2813 13.8191C19.2649 14.0037 19.2875 14.1897 19.3476 14.3647C19.4077 14.5397 19.5039 14.6997 19.6297 14.8339C19.7555 14.9682 19.9081 15.0736 20.0773 15.1432C20.2464 15.2128 20.4283 15.2449 20.6106 15.2375C20.9394 15.2441 21.2587 15.1251 21.5051 14.904C21.6391 14.7783 21.751 14.6302 21.8358 14.4663L21.4467 14.2538ZM19.7934 13.5085C19.8219 13.315 19.9169 13.1379 20.0617 13.0087C20.2065 12.8795 20.3917 12.8066 20.5844 12.8028C20.7779 12.804 20.9644 12.876 21.1097 13.0056C21.2551 13.1353 21.3494 13.3139 21.3754 13.5085H19.7934ZM24.5005 12.8378C24.3942 12.6925 24.2551 12.5752 24.0949 12.4957C23.9347 12.4163 23.758 12.3769 23.5798 12.381C23.3993 12.3773 23.22 12.4121 23.0536 12.4833C22.8871 12.5544 22.7373 12.6603 22.6138 12.794C22.4903 12.9278 22.3958 13.0864 22.3366 13.2596C22.2774 13.4328 22.2546 13.6167 22.2699 13.7994C22.2533 13.9833 22.2749 14.1687 22.3334 14.3436C22.3919 14.5185 22.486 14.6789 22.6095 14.8145C22.733 14.9501 22.8832 15.0578 23.0504 15.1307C23.2175 15.2036 23.3979 15.2399 23.5798 15.2375C23.7578 15.2398 23.9338 15.1996 24.0937 15.1203C24.2536 15.041 24.3929 14.9246 24.5005 14.7807V15.1613H24.9676V10.3963H24.5005V12.8378ZM23.6315 12.8051C23.757 12.8064 23.8808 12.8342 23.9951 12.8865C24.1095 12.9389 24.2119 13.0148 24.2959 13.1093C24.38 13.2039 24.4438 13.3151 24.4834 13.436C24.523 13.5568 24.5375 13.6847 24.526 13.8115C24.5373 13.9387 24.5226 14.0668 24.483 14.1879C24.4434 14.309 24.3796 14.4206 24.2957 14.5156C24.2118 14.6107 24.1096 14.6872 23.9953 14.7404C23.881 14.7936 23.7572 14.8223 23.6315 14.8248C23.5052 14.8233 23.3807 14.7948 23.266 14.7411C23.1512 14.6875 23.0489 14.6099 22.9657 14.5135C22.8825 14.417 22.8201 14.3039 22.7828 14.1813C22.7455 14.0588 22.734 13.9297 22.749 13.8024C22.7359 13.6766 22.7489 13.5494 22.7873 13.429C22.8256 13.3086 22.8884 13.1977 22.9716 13.1035C23.0547 13.0093 23.1564 12.9339 23.2701 12.8821C23.3838 12.8303 23.5069 12.8033 23.6315 12.8028V12.8051ZM27.5671 14.7845C27.6771 14.9307 27.8196 15.0484 27.9831 15.1278C28.1465 15.2072 28.3262 15.2461 28.5074 15.2413C28.6856 15.2398 28.8616 15.2012 29.0245 15.1279C29.1875 15.0546 29.3339 14.9482 29.4547 14.8152C29.5756 14.6822 29.6683 14.5255 29.7272 14.3547C29.786 14.1839 29.8098 14.0027 29.797 13.8222C29.8097 13.639 29.7853 13.4552 29.7255 13.2819C29.6656 13.1086 29.5715 12.9496 29.4489 12.8146C29.3263 12.6797 29.1778 12.5716 29.0125 12.497C28.8472 12.4224 28.6687 12.383 28.4879 12.381C28.3112 12.3791 28.1364 12.4181 27.9768 12.4952C27.8173 12.5722 27.6772 12.6853 27.5671 12.8256V10.394H27.0978V15.159H27.5649L27.5671 14.7845ZM28.4421 14.8241C28.3166 14.8222 28.1928 14.7942 28.0784 14.7417C27.964 14.6893 27.8615 14.6135 27.7771 14.5191C27.6928 14.4248 27.6284 14.3138 27.588 14.1931C27.5476 14.0725 27.5321 13.9446 27.5424 13.8176C27.5331 13.6909 27.5492 13.5636 27.5895 13.4433C27.6299 13.3231 27.6937 13.2123 27.7772 13.1177C27.8608 13.0231 27.9622 12.9465 28.0756 12.8927C28.1889 12.8389 28.3118 12.8088 28.4369 12.8043C28.5619 12.8089 28.6847 12.8393 28.7978 12.8937C28.9108 12.9481 29.0117 13.0255 29.0943 13.1209C29.1769 13.2164 29.2393 13.3279 29.2779 13.4488C29.3165 13.5697 29.3303 13.6972 29.3186 13.8237C29.3301 13.9486 29.3161 14.0745 29.2775 14.1936C29.239 14.3127 29.1767 14.4225 29.0946 14.5162C29.0124 14.6098 28.9122 14.6852 28.8 14.7378C28.6879 14.7904 28.5663 14.819 28.4429 14.8218L28.4421 14.8241ZM30.3743 16.6672H30.8932L32.8711 12.4496H32.3522L31.4773 14.3909L30.5243 12.4496H29.9919L31.2306 14.907L30.3743 16.6672Z" fill="white"/>
    <path d="M73.1352 0.882324H2.12512C1.50589 0.882324 1.00391 1.39588 1.00391 2.02938V24.9706C1.00391 25.6041 1.50589 26.1176 2.12512 26.1176H73.1352C73.7544 26.1176 74.2564 25.6041 74.2564 24.9706V2.02938C74.2564 1.39588 73.7544 0.882324 73.1352 0.882324Z" stroke="#D2D2D2"/>
</svg>
