<svg width="39" height="27" viewBox="0 0 39 27" fill="none" xmlns="http://www.w3.org/2000/svg">
    <path d="M36.2192 0.5H2.17922C1.36184 0.5 0.699219 1.18474 0.699219 2.02941V24.9706C0.699219 25.8153 1.36184 26.5 2.17922 26.5H36.2192C37.0366 26.5 37.6992 25.8153 37.6992 24.9706V2.02941C37.6992 1.18474 37.0366 0.5 36.2192 0.5Z" fill="white"/>
    <path d="M36.6889 0.880859H2.19889C1.57775 0.880859 1.07422 1.39213 1.07422 2.02281V24.8619C1.07422 25.4926 1.57775 26.0039 2.19889 26.0039H36.6889C37.3101 26.0039 37.8136 25.4926 37.8136 24.8619V2.02281C37.8136 1.39213 37.3101 0.880859 36.6889 0.880859Z" stroke="#D2D2D2"/>
    <path d="M17.5012 17.1501H15.7617L16.8497 10.5176H18.5892L17.5012 17.1501Z" fill="#00579F"/>
    <path d="M23.806 10.6795C23.307 10.4902 22.7783 10.3945 22.2457 10.397C20.5279 10.397 19.3215 11.2999 19.311 12.5911C19.2968 13.5435 20.177 14.0726 20.8353 14.3908C21.5101 14.7151 21.735 14.9237 21.735 15.2168C21.7283 15.6614 21.1914 15.8662 20.6906 15.8662C20.1266 15.8822 19.5671 15.7613 19.0583 15.5137L18.8296 15.4079L18.5859 16.897C19.2059 17.1339 19.8633 17.2536 20.5257 17.2503C22.3506 17.2503 23.539 16.3611 23.5525 14.9854C23.5593 14.2302 23.0944 13.6516 22.0927 13.1788C21.4846 12.8743 21.112 12.671 21.112 12.3604C21.1195 12.078 21.4269 11.7887 22.1137 11.7887C22.5587 11.7758 23.001 11.8626 23.4093 12.043L23.5668 12.1138L23.8029 10.6818L23.806 10.6795Z" fill="#00579F"/>
    <path d="M26.1187 14.8006C26.262 14.4199 26.813 12.9445 26.813 12.9445C26.8055 12.959 26.9562 12.5562 27.0417 12.3096L27.1632 12.8813C27.1632 12.8813 27.4923 14.4686 27.5643 14.8006H26.1187ZM28.2654 10.5175H26.9202C26.73 10.4934 26.5373 10.5344 26.3727 10.6341C26.2081 10.7339 26.081 10.8865 26.0115 11.0679L23.4277 17.1499H25.2527L25.6179 16.1549H27.8507C27.901 16.3879 28.0584 17.1499 28.0584 17.1499H29.669L28.2654 10.5175Z" fill="#00579F"/>
    <path d="M14.3077 10.5176L12.6042 15.0405L12.4182 14.1269C11.9862 12.9282 11.1286 11.9366 10.0137 11.3466L11.574 17.147H13.4132L16.1469 10.5237L14.3077 10.5176Z" fill="#00579F"/>
    <path d="M11.023 10.5171H8.22185L8.19336 10.6511C9.12376 10.8334 9.99565 11.2455 10.7321 11.8509C11.4685 12.4564 12.0469 13.2365 12.4161 14.1226L11.8081 11.0774C11.7676 10.9023 11.6649 10.7485 11.5195 10.6457C11.3742 10.5428 11.1966 10.4981 11.0208 10.5201L11.023 10.5171Z" fill="#FAA61A"/>
</svg>
